<svg xmlns="http://www.w3.org/2000/svg" xmlns:xlink="http://www.w3.org/1999/xlink" width="2000" zoomAndPan="magnify" viewBox="0 0 1500 1499.999933" height="2000" preserveAspectRatio="xMidYMid meet" version="1.0"><defs><g/><clipPath id="d43df523ae"><path d="M 76 325 L 811 325 L 811 1372 L 76 1372 Z M 76 325 " clip-rule="nonzero"/></clipPath><clipPath id="035cae068e"><path d="M 60 314 L 796 314 L 796 1372 L 60 1372 Z M 60 314 " clip-rule="nonzero"/></clipPath><clipPath id="6c1c7ad577"><rect x="0" width="837" y="0" height="1372"/></clipPath></defs><g transform="matrix(1, 0, 0, 1, 313, 128)"><g clip-path="url(#6c1c7ad577)"><g fill="#8b5cf6" fill-opacity="1"><g transform="translate(-14.459123, 1038.485274)"><g><path d="M 794.734375 -341.890625 C 794.734375 -291.898438 785.234375 -245.160156 766.234375 -201.671875 C 747.242188 -158.191406 722.003906 -120.457031 690.515625 -88.46875 C 659.023438 -56.476562 622.285156 -31.234375 580.296875 -12.734375 C 538.304688 5.753906 494.328125 15 448.359375 15 C 412.367188 15 377.378906 11 343.390625 3 C 309.398438 -5 276.410156 -17.992188 244.421875 -35.984375 L 244.421875 -173.9375 C 268.410156 -156.945312 297.148438 -142.203125 330.640625 -129.703125 C 364.128906 -117.210938 395.867188 -110.96875 425.859375 -110.96875 C 497.828125 -110.96875 555.300781 -133.457031 598.28125 -178.4375 C 641.269531 -223.425781 662.765625 -283.410156 662.765625 -358.390625 C 662.765625 -394.367188 657.015625 -427.601562 645.515625 -458.09375 C 634.023438 -488.59375 617.78125 -515.082031 596.78125 -537.5625 C 575.789062 -560.050781 550.550781 -577.539062 521.0625 -590.03125 C 491.582031 -602.53125 458.847656 -608.78125 422.859375 -608.78125 C 387.867188 -608.78125 356.128906 -602.03125 327.640625 -588.53125 C 299.148438 -575.039062 274.90625 -555.800781 254.90625 -530.8125 C 234.914062 -505.832031 219.421875 -475.597656 208.421875 -440.109375 C 197.429688 -404.617188 191.9375 -365.378906 191.9375 -322.390625 L 191.9375 323.890625 L 59.984375 323.890625 L 59.984375 -344.890625 C 59.984375 -399.867188 68.726562 -451.097656 86.21875 -498.578125 C 103.71875 -546.054688 128.210938 -587.289062 159.703125 -622.28125 C 191.191406 -657.269531 229.175781 -684.757812 273.65625 -704.75 C 318.144531 -724.75 367.878906 -734.75 422.859375 -734.75 C 479.835938 -734.75 531.316406 -724.5 577.296875 -704 C 623.285156 -683.507812 662.523438 -655.519531 695.015625 -620.03125 C 727.503906 -584.539062 752.242188 -542.804688 769.234375 -494.828125 C 786.234375 -446.847656 794.734375 -395.867188 794.734375 -341.890625 Z M 794.734375 -341.890625 "/></g></g></g><g clip-path="url(#d43df523ae)"><g fill="#6366f1" fill-opacity="1"><g transform="translate(16.249214, 1059.987479)"><g><path d="M 794.734375 -341.890625 C 794.734375 -291.898438 785.234375 -245.160156 766.234375 -201.671875 C 747.242188 -158.191406 722.003906 -120.457031 690.515625 -88.46875 C 659.023438 -56.476562 622.285156 -31.234375 580.296875 -12.734375 C 538.304688 5.753906 494.328125 15 448.359375 15 C 412.367188 15 377.378906 11 343.390625 3 C 309.398438 -5 276.410156 -17.992188 244.421875 -35.984375 L 244.421875 -173.9375 C 268.410156 -156.945312 297.148438 -142.203125 330.640625 -129.703125 C 364.128906 -117.210938 395.867188 -110.96875 425.859375 -110.96875 C 497.828125 -110.96875 555.300781 -133.457031 598.28125 -178.4375 C 641.269531 -223.425781 662.765625 -283.410156 662.765625 -358.390625 C 662.765625 -394.367188 657.015625 -427.601562 645.515625 -458.09375 C 634.023438 -488.59375 617.78125 -515.082031 596.78125 -537.5625 C 575.789062 -560.050781 550.550781 -577.539062 521.0625 -590.03125 C 491.582031 -602.53125 458.847656 -608.78125 422.859375 -608.78125 C 387.867188 -608.78125 356.128906 -602.03125 327.640625 -588.53125 C 299.148438 -575.039062 274.90625 -555.800781 254.90625 -530.8125 C 234.914062 -505.832031 219.421875 -475.597656 208.421875 -440.109375 C 197.429688 -404.617188 191.9375 -365.378906 191.9375 -322.390625 L 191.9375 323.890625 L 59.984375 323.890625 L 59.984375 -344.890625 C 59.984375 -399.867188 68.726562 -451.097656 86.21875 -498.578125 C 103.71875 -546.054688 128.210938 -587.289062 159.703125 -622.28125 C 191.191406 -657.269531 229.175781 -684.757812 273.65625 -704.75 C 318.144531 -724.75 367.878906 -734.75 422.859375 -734.75 C 479.835938 -734.75 531.316406 -724.5 577.296875 -704 C 623.285156 -683.507812 662.523438 -655.519531 695.015625 -620.03125 C 727.503906 -584.539062 752.242188 -542.804688 769.234375 -494.828125 C 786.234375 -446.847656 794.734375 -395.867188 794.734375 -341.890625 Z M 794.734375 -341.890625 "/></g></g></g></g><g clip-path="url(#035cae068e)"><g fill="#000000" fill-opacity="1"><g transform="translate(0.895045, 1049.236407)"><g><path d="M 794.734375 -341.890625 C 794.734375 -291.898438 785.234375 -245.160156 766.234375 -201.671875 C 747.242188 -158.191406 722.003906 -120.457031 690.515625 -88.46875 C 659.023438 -56.476562 622.285156 -31.234375 580.296875 -12.734375 C 538.304688 5.753906 494.328125 15 448.359375 15 C 412.367188 15 377.378906 11 343.390625 3 C 309.398438 -5 276.410156 -17.992188 244.421875 -35.984375 L 244.421875 -173.9375 C 268.410156 -156.945312 297.148438 -142.203125 330.640625 -129.703125 C 364.128906 -117.210938 395.867188 -110.96875 425.859375 -110.96875 C 497.828125 -110.96875 555.300781 -133.457031 598.28125 -178.4375 C 641.269531 -223.425781 662.765625 -283.410156 662.765625 -358.390625 C 662.765625 -394.367188 657.015625 -427.601562 645.515625 -458.09375 C 634.023438 -488.59375 617.78125 -515.082031 596.78125 -537.5625 C 575.789062 -560.050781 550.550781 -577.539062 521.0625 -590.03125 C 491.582031 -602.53125 458.847656 -608.78125 422.859375 -608.78125 C 387.867188 -608.78125 356.128906 -602.03125 327.640625 -588.53125 C 299.148438 -575.039062 274.90625 -555.800781 254.90625 -530.8125 C 234.914062 -505.832031 219.421875 -475.597656 208.421875 -440.109375 C 197.429688 -404.617188 191.9375 -365.378906 191.9375 -322.390625 L 191.9375 323.890625 L 59.984375 323.890625 L 59.984375 -344.890625 C 59.984375 -399.867188 68.726562 -451.097656 86.21875 -498.578125 C 103.71875 -546.054688 128.210938 -587.289062 159.703125 -622.28125 C 191.191406 -657.269531 229.175781 -684.757812 273.65625 -704.75 C 318.144531 -724.75 367.878906 -734.75 422.859375 -734.75 C 479.835938 -734.75 531.316406 -724.5 577.296875 -704 C 623.285156 -683.507812 662.523438 -655.519531 695.015625 -620.03125 C 727.503906 -584.539062 752.242188 -542.804688 769.234375 -494.828125 C 786.234375 -446.847656 794.734375 -395.867188 794.734375 -341.890625 Z M 794.734375 -341.890625 "/></g></g></g></g></g></g></svg>