<svg xmlns="http://www.w3.org/2000/svg" viewBox="0 0 400 400" width="400" height="400">
  <!-- Scatto — apertura fotografica a 6 lame — variante dark -->
  <!-- sfondo #0f0f1a, apertura bianca -->
  <rect width="400" height="400" fill="#0f0f1a"/>
  <defs>
    <mask id="m">
      <circle cx="200" cy="200" r="130" fill="white"/>
      <path d="M329.3,186.4 A130,130 0 0,1 329.3,213.6 L234.5,228.9 Z" fill="black"/>
      <path d="M329.3,186.4 A130,130 0 0,1 329.3,213.6 L234.5,228.9 Z" fill="black" transform="rotate(60 200 200)"/>
      <path d="M329.3,186.4 A130,130 0 0,1 329.3,213.6 L234.5,228.9 Z" fill="black" transform="rotate(120 200 200)"/>
      <path d="M329.3,186.4 A130,130 0 0,1 329.3,213.6 L234.5,228.9 Z" fill="black" transform="rotate(180 200 200)"/>
      <path d="M329.3,186.4 A130,130 0 0,1 329.3,213.6 L234.5,228.9 Z" fill="black" transform="rotate(240 200 200)"/>
      <path d="M329.3,186.4 A130,130 0 0,1 329.3,213.6 L234.5,228.9 Z" fill="black" transform="rotate(300 200 200)"/>
      <circle cx="200" cy="200" r="28" fill="black"/>
    </mask>
  </defs>
  <circle cx="200" cy="200" r="130" fill="white" mask="url(#m)"/>
</svg>
